<svg
  width="24"
  height="24"
  viewBox="0 0 24 24"
  fill="none"
  xmlns="http://www.w3.org/2000/svg"
>
  <path
    d="M16.8603 4.71026C17.0855 4.48508 17.3528 4.30646 17.647 4.18459C17.9413 4.06272 18.2566 4 18.575 4C18.8935 4 19.2088 4.06272 19.503 4.18459C19.7972 4.30646 20.0646 4.48508 20.2897 4.71026C20.5149 4.93543 20.6935 5.20276 20.8154 5.49697C20.9373 5.79118 21 6.10651 21 6.42497C21 6.74342 20.9373 7.05875 20.8154 7.35296C20.6935 7.64717 20.5149 7.9145 20.2897 8.13968L8.71545 19.714L4 21L5.28603 16.2845L11.0732 10.4974L16.8603 4.71026Z"
    stroke="#A4A4A4"
    stroke-linecap="round"
    stroke-linejoin="round"
  />
</svg>